HIERARCHY
ROOT Hips
{
	OFFSET -3.958830 18.904000 13.208200
	CHANNELS 6 Xposition Yposition Zposition Zrotation Yrotation Xrotation 
	JOINT LHipJoint
	{
		OFFSET 0.000000 0.000000 0.000000
		CHANNELS 3 Zrotation Yrotation Xrotation
		JOINT LeftUpLeg
		{
			OFFSET 1.800000 -1.400000 0.085000
			CHANNELS 3 Zrotation Yrotation Xrotation
			JOINT LeftLeg
			{
				OFFSET 2.215000 -6.000000 0.000000
				CHANNELS 3 Zrotation Yrotation Xrotation
				JOINT LeftFoot
				{
					OFFSET 2.500000 -6.900000 0.000000
					CHANNELS 3 Zrotation Yrotation Xrotation
					JOINT LeftToeBase
					{
						OFFSET 0.200000 -0.500000 1.950000
						CHANNELS 3 Zrotation Yrotation Xrotation
						End Site
						{
							OFFSET 0.000000 0.000000 0.000000
						}
					}
				}
			}
		}
	}
	JOINT RHipJoint
	{
		OFFSET 0.000000 0.000000 0.000000
		CHANNELS 3 Zrotation Yrotation Xrotation
		JOINT RightUpLeg
		{
			OFFSET -1.800000 -1.400000 0.085000
			CHANNELS 3 Zrotation Yrotation Xrotation
			JOINT RightLeg
			{
				OFFSET -2.215000 -6.000000 0.000000
				CHANNELS 3 Zrotation Yrotation Xrotation
				JOINT RightFoot
				{
					OFFSET -2.500000 -6.900000 0.000000
					CHANNELS 3 Zrotation Yrotation Xrotation
					JOINT RightToeBase
					{
						OFFSET -0.200000 -0.500000 1.950000
						CHANNELS 3 Zrotation Yrotation Xrotation
						End Site
						{
							OFFSET 0.000000 0.000000 0.000000
						}
					}
				}
			}
		}
	}
	JOINT LowerBack
	{
		OFFSET 0.000000 0.000000 0.000000
		CHANNELS 3 Zrotation Yrotation Xrotation
		JOINT Spine
		{
			OFFSET -0.087000 1.940000 -0.288900
			CHANNELS 3 Zrotation Yrotation Xrotation
			JOINT Spine1
			{
				OFFSET 0.000000 1.950000 0.060000
				CHANNELS 3 Zrotation Yrotation Xrotation
				JOINT Neck
				{
					OFFSET 0.000000 0.000000 0.000000
					CHANNELS 3 Zrotation Yrotation Xrotation
					JOINT Neck1
					{
						OFFSET 0.000000 1.600000 0.340000
						CHANNELS 3 Zrotation Yrotation Xrotation
						JOINT Head
						{
							OFFSET 0.000000 1.667000 -0.240000
							CHANNELS 3 Zrotation Yrotation Xrotation
							End Site
							{
								OFFSET 0.000000 0.000000 0.000000
							}
						}
					}
				}
				JOINT LeftShoulder
				{
					OFFSET 0.000000 0.000000 0.000000
					CHANNELS 3 Zrotation Yrotation Xrotation
					JOINT LeftArm
					{
						OFFSET 2.700000 1.550000 -0.730000
						CHANNELS 3 Zrotation Yrotation Xrotation
						JOINT LeftForeArm
						{
							OFFSET 5.450000 0.000000 0.000000
							CHANNELS 3 Zrotation Yrotation Xrotation
							JOINT LeftHand
							{
								OFFSET 3.450000 0.000000 0.000000
								CHANNELS 3 Zrotation Yrotation Xrotation
								JOINT LeftHandIndex1
								{
									OFFSET 0.750000 0.000000 0.000000
									CHANNELS 3 Zrotation Yrotation Xrotation
									End Site
									{
										OFFSET 0.000000 0.000000 0.000000
									}
								}
							}
						}
					}
				}
				JOINT RightShoulder
				{
					OFFSET 0.000000 0.000000 0.000000
					CHANNELS 3 Zrotation Yrotation Xrotation
					JOINT RightArm
					{
						OFFSET -2.700000 1.550000 -0.730000
						CHANNELS 3 Zrotation Yrotation Xrotation
						JOINT RightForeArm
						{
							OFFSET -5.450000 0.000000 0.000000
							CHANNELS 3 Zrotation Yrotation Xrotation
							JOINT RightHand
							{
								OFFSET -3.450000 0.000000 0.000000
								CHANNELS 3 Zrotation Yrotation Xrotation
								JOINT RightHandIndex1
								{
									OFFSET -0.750000 0.000000 0.000000
									CHANNELS 3 Zrotation Yrotation Xrotation
									End Site
									{
										OFFSET 0.000000 0.000000 0.000000
									}
								}
							}
						}
					}
				}
			}
		}
	}
}
MOTION
Frames: 8
Frame Time: 0.016667
4.809870 17.099220 2.137560 -0.137431 20.327970 -4.178473 -15.451230 13.929704 3.407078 7.481551 -0.032252 -2.865071 -13.452202 7.063803 8.755424 0.291439 4.560701 2.902429 0.399130 0.319740 0.314590 17.805998 -10.317906 3.410552 -0.053982 0.431013 -9.672999 6.199995 -3.049958 -0.439821 -0.529370 -2.330675 3.476502 -0.102250 -0.223810 0.042720 -2.962619 -3.287851 -8.601849 -2.208073 -2.852473 27.605020 -0.594674 -1.881483 -1.278326 2.610807 -5.247432 -20.781596 -23.651247 10.348709 76.768879 6.447880 -7.693190 -5.506090 -27.195213 -18.559387 9.153774 -29.151715 11.074067 -6.955610 -43.666316 -23.421199 4.669202 -2.901497 3.145911 0.688710 -0.468280 0.467890 0.069200 24.263938 24.156296 14.696713 27.659332 -15.146451 -11.249259 44.037763 35.477646 8.185979 2.512279 -1.349034 0.127530 0.153120 -0.117900 0.027680 
4.758340 17.114520 2.146420 -0.186789 20.094413 -4.434317 -15.448261 13.925383 3.429441 6.354378 0.023268 -2.479216 -13.881697 7.282866 9.320796 0.273925 4.668875 2.881063 0.366280 0.263480 0.312790 17.819516 -10.301204 3.422593 0.210843 0.317896 -9.230197 6.052457 -3.064821 -0.733504 -0.523264 -2.361536 3.474721 -0.117250 -0.199640 0.033120 -2.985106 -3.317668 -8.618128 -1.509693 -2.998992 28.000724 -1.203402 -1.819739 -1.341571 2.924837 -5.249302 -20.793887 -23.714855 10.336975 76.717182 5.369980 -7.579180 -5.203510 -27.928948 -18.512293 9.010489 -28.851193 11.400464 -6.947773 -42.721195 -23.417480 4.500162 -2.915906 3.098738 0.705330 -0.452860 0.445130 0.052880 24.312833 24.193618 14.877556 26.953272 -16.174231 -11.488578 44.503539 36.918696 8.800339 2.486333 -1.337249 0.089230 0.183550 -0.086910 0.008250 
4.676050 17.146620 2.165740 -0.457443 19.057284 -5.629289 -15.384887 13.805104 3.459005 4.806734 0.173589 -1.121248 -14.979628 7.731296 10.096275 0.319480 4.865431 2.805888 0.390220 0.285350 0.334070 17.911987 -10.306492 3.446688 0.269637 -0.022664 -7.728841 6.473159 -3.182491 -1.427081 -0.592018 -2.507784 3.404821 -0.104930 -0.218300 0.036680 -3.187142 -3.126249 -8.616846 0.239295 -3.407274 29.775040 -2.966225 -1.682040 -1.591704 3.026591 -5.631043 -20.838120 -25.189609 11.505960 77.036257 6.184330 -7.636330 -6.863280 -28.820538 -18.347542 8.787313 -27.235356 12.194889 -6.949618 -42.830742 -23.906504 4.692573 -2.866130 3.114279 0.735420 -0.482550 0.468980 0.044850 24.840460 24.273520 15.017756 25.779958 -17.251219 -11.853731 44.363653 39.245136 9.630688 2.467366 -1.349636 0.093480 0.193520 -0.085320 0.003790 
4.577510 17.161720 2.205120 -0.787601 17.611757 -6.447070 -15.332805 13.699527 3.510867 2.801702 0.253410 -0.269662 -15.832516 8.151503 11.068984 0.335584 5.029974 2.742034 0.378880 0.264360 0.329530 17.986446 -10.337169 3.433593 0.376076 -0.224683 -7.033362 7.031328 -3.363231 -1.068788 -0.606463 -2.593968 3.364042 -0.104840 -0.216010 0.030150 -3.337993 -2.943917 -8.602698 1.796671 -3.718713 30.814865 -4.440204 -1.532629 -1.718664 3.191573 -6.027682 -20.809848 -26.335511 12.366238 76.526609 6.594590 -7.564550 -7.609850 -28.988540 -17.947797 8.627702 -26.947433 13.044839 -7.238287 -42.506013 -24.270031 4.637668 -2.858465 3.105493 0.756970 -0.490790 0.461230 0.026460 24.537106 24.263792 15.062192 24.755312 -17.713083 -11.846790 43.581558 39.472667 9.585092 2.456639 -1.329781 0.073730 0.203870 -0.061220 -0.008410 
4.480180 17.155780 2.231900 -1.126102 16.342484 -7.102724 -15.276603 13.607607 3.571319 0.226397 0.338564 0.076923 -15.491546 8.048586 11.202257 0.329587 4.917044 2.787606 0.372680 0.262400 0.331250 18.057057 -10.397532 3.382665 0.091513 -0.281615 -7.266044 8.348709 -3.648896 0.305553 -0.604472 -2.631679 3.345562 -0.102980 -0.229560 0.011830 -3.501245 -2.755596 -8.568259 3.679906 -4.201038 31.898826 -6.246218 -1.537645 -1.555025 3.565174 -6.330521 -20.515000 -27.046549 12.394724 75.007132 5.917950 -7.408230 -8.543810 -28.384217 -17.409285 8.415392 -26.904678 13.343753 -7.754085 -42.601695 -25.788715 5.133974 -2.837154 3.106292 0.759670 -0.504950 0.462140 0.024140 22.987331 24.080601 14.960332 24.100544 -17.208349 -11.691385 44.149864 39.143450 9.713580 2.485134 -1.309750 0.063880 0.212280 -0.065990 -0.012280 
4.367110 17.127000 2.262820 -1.266055 15.318628 -7.145908 -15.220345 13.505075 3.643406 -2.457690 0.360709 -0.287385 -14.481633 7.565884 10.525541 0.283082 4.651825 2.893395 0.326810 0.199160 0.295090 18.120834 -10.481274 3.315045 -0.206994 -0.125814 -8.584481 9.721382 -3.987097 2.347460 -0.546125 -2.634876 3.343258 -0.130240 -0.199260 0.004080 -3.660447 -2.525089 -8.537873 5.024009 -4.519197 32.443478 -7.599264 -1.586003 -1.619630 3.574670 -6.746706 -20.043696 -27.747481 12.158471 72.065877 6.103370 -7.621570 -7.963950 -27.197155 -16.675398 8.200012 -26.823225 13.390930 -7.978059 -43.620613 -26.336834 5.500049 -2.870227 3.126137 0.739570 -0.486540 0.417160 0.016110 21.628075 23.572657 14.700656 23.053360 -16.731522 -11.203431 45.353354 37.829964 9.691937 2.511343 -1.313839 0.043150 0.201190 -0.042100 -0.012460 
4.238590 17.110740 2.276770 -1.297735 14.534433 -7.274031 -15.193915 13.438350 3.739900 -4.425895 0.409242 -0.662960 -13.685197 6.943375 8.763899 0.244590 4.368285 3.013847 0.303660 0.161100 0.275310 18.150849 -10.541350 3.225140 -0.372175 0.117062 -10.173675 10.538015 -4.364022 4.965622 -0.499865 -2.619487 3.345870 -0.150650 -0.175500 0.012450 -3.730812 -2.392342 -8.519312 5.500581 -4.613412 33.619939 -8.302665 -1.629594 -1.779345 3.597505 -6.952949 -19.467028 -27.849585 11.398920 69.337111 5.911330 -7.842330 -7.902170 -26.487039 -16.144604 7.918475 -25.918869 13.206812 -7.962759 -44.881356 -26.665668 5.926512 -2.885084 3.157235 0.724290 -0.469750 0.393100 0.024830 20.773359 23.101475 14.360926 20.894134 -16.511389 -10.523432 47.125725 36.911974 10.021578 2.526339 -1.345929 0.035870 0.189180 -0.038350 -0.007230 
4.101810 17.088410 2.271600 -1.833444 14.453877 -7.522533 -15.188649 13.467565 3.788737 -5.097686 0.401546 -1.084795 -13.004687 6.533710 7.637510 0.219940 4.195026 3.076920 0.269500 0.112970 0.246660 18.150196 -10.564320 3.158678 -0.059447 0.534190 -11.863898 10.947680 -4.783883 8.101321 -0.458443 -2.608603 3.330384 -0.183290 -0.163260 0.035780 -3.744409 -2.431002 -8.493565 6.127285 -4.959786 35.391816 -8.553396 -1.772966 -2.250715 3.726938 -7.079760 -19.118221 -27.824295 10.462132 66.652593 6.141870 -8.324690 -8.418800 -25.890033 -15.948110 7.730299 -25.294421 12.810494 -7.936216 -45.109317 -26.948231 6.154839 -2.903913 3.191224 0.714840 -0.460540 0.378290 0.015330 19.887371 22.923290 14.237373 18.254738 -17.184281 -9.951445 49.172516 36.809511 10.735526 2.533792 -1.382764 0.041410 0.159300 -0.016630 -0.001860 
